<?xml version="1.0" encoding="UTF-8" standalone="no"?>
<!DOCTYPE svg PUBLIC "-//W3C//DTD SVG 1.1//EN" "http://www.w3.org/Graphics/SVG/1.1/DTD/svg11.dtd">
<!-- Generated by Microsoft Visio, SVG Export serial_uartes.svg svg2 -->
<svg xmlns="http://www.w3.org/2000/svg" xmlns:xlink="http://www.w3.org/1999/xlink" xmlns:ev="http://www.w3.org/2001/xml-events"
		xmlns:v="http://schemas.microsoft.com/visio/2003/SVGExtensions/" width="6.5504in" height="2.62628in"
		viewBox="0 0 471.629 189.092" xml:space="preserve" color-interpolation-filters="sRGB" class="st13">
	<v:documentProperties v:langID="1033" v:viewMarkup="false"/>

	<style type="text/css">
	<![CDATA[
		.st1 {fill:#ffffff;stroke:#000000;stroke-linecap:butt;stroke-width:0.8}
		.st2 {fill:none;stroke:#000000;stroke-linecap:butt;stroke-width:0.8}
		.st3 {fill:none;stroke:none;stroke-linecap:butt;stroke-width:0.75}
		.st4 {fill:#000000;font-family:Arial;font-size:0.833336em}
		.st5 {fill:none;stroke:#000000;stroke-dasharray:2.88,1.44;stroke-linecap:butt;stroke-width:0.72}
		.st6 {font-size:1em}
		.st7 {fill:none;stroke:#000000;stroke-linecap:butt;stroke-width:0.72}
		.st8 {fill:#000000;stroke:#000000;stroke-linecap:butt;stroke-width:0.72}
		.st9 {stroke:#000000;stroke-linecap:butt;stroke-width:0.8}
		.st10 {fill:#000001;stroke:#000001;stroke-linecap:butt;stroke-width:0.55}
		.st11 {fill:#000000;stroke:#000000;stroke-linecap:butt;stroke-width:0.55}
		.st12 {fill:none}
		.st13 {fill:none;fill-rule:evenodd;font-size:12px;overflow:visible;stroke-linecap:square;stroke-miterlimit:3}
	]]>
	</style>

	<g v:mID="0" v:index="1" v:groupContext="foregroundPage">
		<title>svg2</title>
		<v:pageProperties v:drawingScale="1" v:pageScale="1" v:drawingUnits="19" v:shadowOffsetX="9" v:shadowOffsetY="-9"/>
		<g id="group46-1" transform="translate(0.360002,-0.399997)" v:mID="46" v:groupContext="group">
			<title>Sheet.46</title>
			<g id="shape2-2" v:mID="2" v:groupContext="shape" transform="translate(114.487,-1.12E-05)">
				<title>rect4147</title>
				<rect x="0" y="0.800008" width="356.382" height="188.292" class="st1"/>
			</g>
			<g id="shape3-4" v:mID="3" v:groupContext="shape" transform="translate(114.487,0)">
				<title>rect4149</title>
				<rect x="0" y="29.9429" width="356.382" height="159.15" class="st2"/>
			</g>
			<g id="shape4-6" v:mID="4" v:groupContext="shape" transform="translate(257.314,-167.93)">
				<title>text4151</title>
				<desc>PCA10056 DK</desc>
				<v:textBlock v:margins="rect(0,0,0,0)"/>
				<v:textRect cx="55" cy="183.092" width="110.01" height="12"/>
				<rect x="0" y="177.092" width="110" height="12" class="st3"/>
				<text x="-0" y="186.09" class="st4" v:langID="1033"><v:paragraph/><v:tabList/>PCA10056 DK</text>			</g>
			<g id="shape5-9" v:mID="5" v:groupContext="shape" transform="translate(227.262,0)">
				<title>rect4155</title>
				<path d="M0 189.09 L243.61 189.09 L243.61 29.94 L0 29.94 L0 189.09 Z" class="st5"/>
			</g>
			<g id="shape6-11" v:mID="6" v:groupContext="shape" transform="translate(145.196,-142.866)">
				<title>text4157</title>
				<desc>J-LINK</desc>
				<v:textBlock v:margins="rect(0,0,0,0)"/>
				<v:textRect cx="25" cy="183.092" width="50.01" height="12"/>
				<rect x="0" y="177.092" width="50" height="12" class="st3"/>
				<text x="0" y="186.09" class="st4" v:langID="1033"><v:paragraph/><v:tabList/>J<tspan class="st6" v:langID="1045">-</tspan>LINK</text>			</g>
			<g id="shape7-15" v:mID="7" v:groupContext="shape" transform="translate(256,-75.5009)">
				<title>rect4161</title>
				<rect x="0" y="131.378" width="67.4286" height="57.7143" class="st7"/>
			</g>
			<g id="shape8-17" v:mID="8" v:groupContext="shape" transform="translate(269.624,-119.835)">
				<title>text4163</title>
				<desc>UARTE0</desc>
				<v:textBlock v:margins="rect(0,0,0,0)"/>
				<v:textRect cx="30" cy="183.092" width="60.01" height="12"/>
				<rect x="0" y="177.092" width="60" height="12" class="st3"/>
				<text x="-0" y="186.09" class="st4" v:langID="1033"><v:paragraph/><v:tabList/>UARTE0</text>			</g>
			<g id="shape9-20" v:mID="9" v:groupContext="shape" transform="translate(252.553,-109.703)">
				<title>path4167</title>
				<ellipse cx="3.53553" cy="185.557" rx="3.53553" ry="3.53553" class="st8"/>
			</g>
			<g id="shape10-22" v:mID="10" v:groupContext="shape" transform="translate(319.753,-109.703)">
				<title>circle4169</title>
				<ellipse cx="3.53553" cy="185.557" rx="3.53553" ry="3.53553" class="st8"/>
			</g>
			<g id="shape11-24" v:mID="11" v:groupContext="shape" transform="translate(260.028,-98.0153)">
				<title>text4171</title>
				<desc>rx</desc>
				<v:textBlock v:margins="rect(0,0,0,0)"/>
				<v:textRect cx="10" cy="183.092" width="20.01" height="12"/>
				<rect x="0" y="177.092" width="20" height="12" class="st3"/>
				<text x="0" y="186.09" class="st4" v:langID="1033"><v:paragraph/><v:tabList/>rx</text>			</g>
			<g id="shape12-27" v:mID="12" v:groupContext="shape" transform="translate(308.028,-98.0153)">
				<title>text4175</title>
				<desc>tx</desc>
				<v:textBlock v:margins="rect(0,0,0,0)"/>
				<v:textRect cx="10" cy="183.092" width="20.01" height="12"/>
				<rect x="0" y="177.092" width="20" height="12" class="st3"/>
				<text x="-0" y="186.09" class="st4" v:langID="1033"><v:paragraph/><v:tabList/>tx</text>			</g>
			<g id="shape13-30" v:mID="13" v:groupContext="shape" transform="translate(7.99361E-15,-43.5009)">
				<title>rect4179</title>
				<rect x="0" y="131.378" width="83.4286" height="57.7143" class="st7"/>
			</g>
			<g id="shape14-32" v:mID="14" v:groupContext="shape" transform="translate(34.9125,-87.8346)">
				<title>text4181</title>
				<desc>PC</desc>
				<v:textBlock v:margins="rect(0,0,0,0)"/>
				<v:textRect cx="10" cy="183.092" width="20.01" height="12"/>
				<rect x="0" y="177.092" width="20" height="12" class="st3"/>
				<text x="0" y="186.09" class="st4" v:langID="1033"><v:paragraph/><v:tabList/>PC</text>			</g>
			<g id="group15-35" transform="translate(86.6069,-71.5188)" v:mID="15" v:groupContext="group">
				<title>Sheet.15</title>
				<g id="shape16-36" v:mID="16" v:groupContext="shape">
					<title>path4185</title>
					<path d="M0 189.09 L24.65 188.69" class="st9"/>
					<path d="M8.61 192.5 L-1.06 189.12 L8.49 185.43 C6.99 187.54 7.05 190.4 8.61 192.5 Z" class="st10"/>
				</g>
				<g id="group17-40" transform="translate(13.0548,3.28255) rotate(-0.939198)" v:mID="17" v:groupContext="group">
					<title>Arrow2Lend</title>
					<g id="shape18-41" v:mID="18" v:groupContext="shape" transform="translate(9.61477,371.114) rotate(180)">
						<title>path4212</title>
						<path d="M9.61 189.09 L0 185.56 L9.61 182.02 C8.08 184.11 8.09 186.96 9.61 189.09 Z" class="st11"/>
					</g>
				</g>
			</g>
			<g id="shape19-43" v:mID="19" v:groupContext="shape" transform="translate(58.4282,-66.0153)">
				<title>text4569</title>
				<desc>USB</desc>
				<v:textBlock v:margins="rect(0,0,0,0)"/>
				<v:textRect cx="15" cy="183.092" width="30.01" height="12"/>
				<rect x="0" y="177.092" width="30" height="12" class="st3"/>
				<text x="0" y="186.09" class="st4" v:langID="1033"><v:paragraph/><v:tabList/>USB</text>			</g>
			<g id="shape20-46" v:mID="20" v:groupContext="shape" transform="translate(127.113,-75.0941)">
				<title>rect4579</title>
				<rect x="0" y="130.971" width="66.5196" height="58.1211" class="st7"/>
			</g>
			<g id="shape21-48" v:mID="21" v:groupContext="shape" transform="translate(133.403,-119.835)">
				<title>text4581</title>
				<desc>COM PORT</desc>
				<v:textBlock v:margins="rect(0,0,0,0)"/>
				<v:textRect cx="40" cy="183.092" width="80.01" height="12"/>
				<rect x="0" y="177.092" width="80" height="12" class="st3"/>
				<text x="-0" y="186.09" class="st4" v:langID="1033"><v:paragraph/><v:tabList/>COM PORT</text>			</g>
			<g id="shape22-51" v:mID="22" v:groupContext="shape" transform="translate(190.153,-109.703)">
				<title>circle4585</title>
				<ellipse cx="3.53553" cy="185.557" rx="3.53553" ry="3.53553" class="st8"/>
			</g>
			<g id="shape23-53" v:mID="23" v:groupContext="shape" transform="translate(175.228,-107.615)">
				<title>text4587</title>
				<desc>tx</desc>
				<v:textBlock v:margins="rect(0,0,0,0)"/>
				<v:textRect cx="10" cy="183.092" width="20.01" height="12"/>
				<rect x="0" y="177.092" width="20" height="12" class="st3"/>
				<text x="0" y="186.09" class="st4" v:langID="1033"><v:paragraph/><v:tabList/>tx</text>			</g>
			<g id="shape24-56" v:mID="24" v:groupContext="shape" transform="translate(190.153,-93.7026)">
				<title>circle4591</title>
				<ellipse cx="3.53553" cy="185.557" rx="3.53553" ry="3.53553" class="st8"/>
			</g>
			<g id="shape25-58" v:mID="25" v:groupContext="shape" transform="translate(175.228,-91.6153)">
				<title>text4593</title>
				<desc>rx</desc>
				<v:textBlock v:margins="rect(0,0,0,0)"/>
				<v:textRect cx="10" cy="183.092" width="20.01" height="12"/>
				<rect x="0" y="177.092" width="20" height="12" class="st3"/>
				<text x="0" y="186.09" class="st4" v:langID="1033"><v:paragraph/><v:tabList/>rx</text>			</g>
			<g id="shape26-61" v:mID="26" v:groupContext="shape" transform="translate(352,-75.5009)">
				<title>rect4615</title>
				<rect x="0" y="131.378" width="67.4286" height="57.7143" class="st7"/>
			</g>
			<g id="shape27-63" v:mID="27" v:groupContext="shape" transform="translate(365.624,-119.835)">
				<title>text4617</title>
				<desc>UARTE1</desc>
				<v:textBlock v:margins="rect(0,0,0,0)"/>
				<v:textRect cx="30" cy="183.092" width="60.01" height="12"/>
				<rect x="0" y="177.092" width="60" height="12" class="st3"/>
				<text x="0" y="186.09" class="st4" v:langID="1033"><v:paragraph/><v:tabList/>UARTE1</text>			</g>
			<g id="shape28-66" v:mID="28" v:groupContext="shape" transform="translate(348.553,-109.703)">
				<title>circle4621</title>
				<ellipse cx="3.53553" cy="185.557" rx="3.53553" ry="3.53553" class="st8"/>
			</g>
			<g id="shape29-68" v:mID="29" v:groupContext="shape" transform="translate(415.753,-109.703)">
				<title>circle4623</title>
				<ellipse cx="3.53553" cy="185.557" rx="3.53553" ry="3.53553" class="st8"/>
			</g>
			<g id="shape30-70" v:mID="30" v:groupContext="shape" transform="translate(356.028,-98.0153)">
				<title>text4625</title>
				<desc>rx</desc>
				<v:textBlock v:margins="rect(0,0,0,0)"/>
				<v:textRect cx="10" cy="183.092" width="20.01" height="12"/>
				<rect x="0" y="177.092" width="20" height="12" class="st3"/>
				<text x="0" y="186.09" class="st4" v:langID="1033"><v:paragraph/><v:tabList/>rx</text>			</g>
			<g id="shape31-73" v:mID="31" v:groupContext="shape" transform="translate(404.028,-98.0153)">
				<title>text4629</title>
				<desc>tx</desc>
				<v:textBlock v:margins="rect(0,0,0,0)"/>
				<v:textRect cx="10" cy="183.092" width="20.01" height="12"/>
				<rect x="0" y="177.092" width="20" height="12" class="st3"/>
				<text x="0" y="186.09" class="st4" v:langID="1033"><v:paragraph/><v:tabList/>tx</text>			</g>
			<g id="group32-76" transform="translate(197.571,-113.287)" v:mID="32" v:groupContext="group">
				<title>Sheet.32</title>
				<g id="shape33-77" v:mID="33" v:groupContext="shape">
					<title>path4765</title>
					<path d="M0 189.09 L54.5 189.09 L0 189.09 Z" class="st12"/>
					<path d="M0 189.09 L54.5 189.09" class="st9"/>
				</g>
				<g id="group34-80" transform="translate(45.9476,3.5215)" v:mID="34" v:groupContext="group">
					<title>marker4739</title>
					<g id="shape35-81" v:mID="35" v:groupContext="shape" transform="translate(9.61477,371.114) rotate(180)">
						<title>path4741</title>
						<path d="M9.61 189.09 L0 185.56 L9.61 182.02 C8.08 184.11 8.09 186.96 9.61 189.09 Z" class="st11"/>
					</g>
				</g>
			</g>
			<g id="group36-83" transform="translate(327.179,-113.215)" v:mID="36" v:groupContext="group">
				<title>Sheet.36</title>
				<g id="shape37-84" v:mID="37" v:groupContext="shape">
					<title>path4779</title>
					<path d="M0 189.09 L20.96 189.09 L0 189.09 Z" class="st12"/>
					<path d="M0 189.09 L20.96 189.09" class="st9"/>
				</g>
				<g id="group38-87" transform="translate(12.4119,3.5215)" v:mID="38" v:groupContext="group">
					<title>marker4787</title>
					<g id="shape39-88" v:mID="39" v:groupContext="shape" transform="translate(9.61477,371.114) rotate(180)">
						<title>path4789</title>
						<path d="M9.61 189.09 L0 185.56 L9.61 182.02 C8.08 184.11 8.09 186.96 9.61 189.09 Z" class="st11"/>
					</g>
				</g>
			</g>
			<g id="group40-90" transform="translate(197.607,-44.3581)" v:mID="40" v:groupContext="group">
				<title>Sheet.40</title>
				<g id="shape41-91" v:mID="41" v:groupContext="shape">
					<title>path4839</title>
					<path d="M225.57 120.24 L243.82 120.24 L243.82 189.09 L16.68 189.09 L16.68 136.35 L0 136.35 L225.57 120.24 Z"
							class="st12"/>
					<path d="M225.57 120.24 L243.82 120.24 L243.82 189.09 L16.68 189.09 L16.68 136.35 L0 136.35" class="st9"/>
				</g>
				<g id="group42-94" transform="translate(8.55236,321.916) rotate(180)" v:mID="42" v:groupContext="group">
					<title>marker4847</title>
					<g id="shape43-95" v:mID="43" v:groupContext="shape" transform="translate(9.61477,371.114) rotate(180)">
						<title>path4849</title>
						<path d="M9.61 189.09 L0 185.56 L9.61 182.02 C8.08 184.11 8.09 186.96 9.61 189.09 Z" class="st11"/>
					</g>
				</g>
			</g>
			<g id="shape44-97" v:mID="44" v:groupContext="shape" transform="translate(290.968,-87.1097)">
				<title>text5019</title>
				<desc>P0.27</desc>
				<v:textBlock v:margins="rect(0,0,0,0)"/>
				<v:textRect cx="25" cy="183.092" width="50.01" height="12"/>
				<rect x="0" y="177.092" width="50" height="12" class="st3"/>
				<text x="0" y="186.09" class="st4" v:langID="1033"><v:paragraph/><v:tabList/>P0.27</text>			</g>
			<g id="shape45-100" v:mID="45" v:groupContext="shape" transform="translate(354.968,-87.1097)">
				<title>text5023</title>
				<desc>P0.26</desc>
				<v:textBlock v:margins="rect(0,0,0,0)"/>
				<v:textRect cx="25" cy="183.092" width="50.01" height="12"/>
				<rect x="0" y="177.092" width="50" height="12" class="st3"/>
				<text x="0" y="186.09" class="st4" v:langID="1033"><v:paragraph/><v:tabList/>P0.26</text>			</g>
		</g>
	</g>
</svg>
